PathFileType   4   (X/Y/Z)
DataRate  CameraRate  NumFrames  NumMarkers  Units  OrigDataRate  OrigDataStartFrame  OrigNumFrames  
  120.0      120.0        10         39         mm      120.0          121        240
Frame#      Time	midhip		hip_r		hip_l		knee_r		knee_l		ankle_r		ankle_l		midasis		asis_r		asis_l		psis_r		psis_l		epicondLat_r		epicondLat_l		epicondMed_r		epicondMed_l		malleolusLat_r		malleolusLat_l		malleolusMedv_r		malleolusMedv_l		heel_r		heel_l		sternalnotch		xyphoidprocess		neck		subclavicle_r		subclavicle_l		toe_r		toe_l		thighwand_r		thighwand_l		upperleg1_r		upperleg1_l		upperleg2_r		upperleg2_l		shankwand_r		shankwand_l		lowerleg1_r		lowerleg1_l		
              X1          Y1          Z1          X2          Y2          Z2          X3          Y3          Z3          X4          Y4          Z4          X5          Y5          Z5          X6          Y6          Z6          X7          Y7          Z7          X8          Y8          Z8          X9          Y9          Z9          X10          Y10          Z10          X11          Y11          Z11          X12          Y12          Z12          X13          Y13          Z13          X14          Y14          Z14          X15          Y15          Z15          X16          Y16          Z16          X17          Y17          Z17          X18          Y18          Z18          X19          Y19          Z19          X20          Y20          Z20          X21          Y21          Z21          X22          Y22          Z22          X23          Y23          Z23          X24          Y24          Z24          X25          Y25          Z25          X26          Y26          Z26          X27          Y27          Z27          X28          Y28          Z28          X29          Y29          Z29          X30          Y30          Z30          X31          Y31          Z31          X32          Y32          Z32          X33          Y33          Z33          X34          Y34          Z34          X35          Y35          Z35          X36          Y36          Z36          X37          Y37          Z37          X38          Y38          Z38          X39          Y39          Z39          

	121	1.00833	759.172	762.821	-251.006	766.505	760.966	-181.377	751.840	764.676	-320.635	757.901	424.524	-164.799	739.607	419.058	-323.925	719.538	65.067	-157.777	715.652	65.929	-329.928	829.334	846.354	-256.169	840.970	843.411	-145.679	817.700	849.298	-366.659	652.851	868.372	-204.372	647.121	868.247	-257.693	758.814	427.281	-108.374	734.896	419.756	-379.722	738.523	419.184	-220.344	750.788	422.863	-264.294	713.445	66.439	-120.801	703.338	67.348	-364.259	719.119	61.330	-191.337	717.534	65.781	-296.433	674.481	51.135	-149.082	669.915	46.902	-308.521	797.500	1196.061	-261.017	808.456	1094.501	-266.779	690.141	1262.235	-238.702	807.282	1195.269	-204.667	793.850	1197.189	-312.000	806.163	48.156	-144.728	804.204	44.834	-350.900	891.611	555.753	-153.980	859.506	572.853	-395.770	843.801	600.330	-119.064	845.606	614.178	-326.709	827.050	543.814	-117.204	833.360	557.155	-321.606	846.829	180.955	-136.173	694.170	174.025	-449.786	769.517	166.629	-150.268	707.251	162.022	-372.315
	122	1.01667	759.172	762.837	-250.999	766.517	760.976	-181.371	751.828	764.698	-320.627	757.871	424.527	-164.820	739.563	419.055	-323.876	719.505	65.084	-157.754	715.646	65.944	-329.934	829.301	846.398	-256.163	840.957	843.444	-145.670	817.646	849.351	-366.655	652.781	868.321	-204.343	647.041	868.250	-257.698	758.796	427.279	-108.394	734.828	419.747	-379.671	738.777	418.905	-220.454	750.933	422.974	-263.952	713.420	66.460	-120.777	703.317	67.368	-364.259	719.247	61.207	-191.304	717.517	65.791	-296.435	674.493	51.072	-148.981	669.867	46.974	-308.481	797.411	1196.087	-260.989	808.592	1094.657	-266.592	690.174	1262.294	-238.631	807.242	1195.542	-204.727	793.945	1197.244	-311.971	806.169	48.163	-144.761	804.179	44.860	-350.921	891.589	555.706	-154.052	859.480	572.870	-395.786	843.500	600.474	-119.169	845.532	614.273	-326.792	826.863	543.727	-117.298	833.348	557.221	-321.559	846.830	180.944	-136.218	694.143	174.034	-449.776	769.560	166.701	-150.468	707.234	162.063	-372.290
	123	1.02500	759.174	762.839	-250.997	766.525	760.973	-181.370	751.823	764.704	-320.624	757.845	424.533	-164.830	739.564	419.070	-323.850	719.335	65.123	-157.716	715.660	65.940	-329.957	829.268	846.429	-256.157	840.933	843.469	-145.670	817.602	849.390	-366.645	652.711	868.255	-204.314	646.982	868.231	-257.680	758.782	427.282	-108.405	734.793	419.760	-379.642	738.752	419.208	-220.943	751.206	422.697	-264.000	713.258	66.506	-120.738	703.309	67.369	-364.274	719.117	61.196	-191.258	717.484	65.708	-296.447	672.151	52.302	-149.143	669.790	47.050	-308.559	797.327	1196.131	-260.931	808.721	1094.814	-266.345	690.102	1262.377	-238.650	807.307	1195.840	-204.714	793.898	1197.276	-311.944	806.152	48.159	-144.789	804.168	44.885	-350.948	891.585	555.663	-154.103	859.462	572.895	-395.799	843.324	600.466	-119.018	845.310	614.222	-326.747	826.779	543.762	-117.362	833.305	557.221	-321.529	846.815	180.950	-136.243	694.133	174.039	-449.762	769.544	166.646	-150.459	707.222	162.086	-372.177
	124	1.03333	759.164	762.824	-251.001	766.515	760.957	-181.374	751.812	764.691	-320.628	757.838	424.541	-164.832	739.630	419.108	-323.833	719.116	65.181	-157.689	715.708	65.915	-329.993	829.227	846.440	-256.157	840.892	843.478	-145.683	817.563	849.402	-366.632	652.649	868.183	-204.298	646.946	868.191	-257.633	758.783	427.291	-108.407	734.801	419.795	-379.620	739.426	418.387	-220.059	751.607	422.391	-263.968	713.043	66.571	-120.710	703.322	67.352	-364.297	718.967	61.221	-191.224	717.387	65.704	-296.450	670.940	52.959	-149.332	669.896	46.950	-308.509	797.253	1196.174	-260.851	808.608	1094.830	-265.981	689.977	1262.456	-238.605	807.279	1196.013	-204.556	793.692	1197.174	-311.871	806.121	48.147	-144.803	804.180	44.890	-350.975	891.582	555.648	-154.127	859.453	572.918	-395.810	843.170	600.374	-118.984	845.136	614.082	-326.772	827.096	543.956	-117.131	833.336	557.218	-321.546	846.796	180.984	-136.235	694.143	174.031	-449.747	769.531	166.617	-150.434	707.122	162.134	-372.152
	125	1.04167	759.130	762.796	-251.004	766.481	760.930	-181.377	751.779	764.662	-320.631	757.861	424.552	-164.835	739.760	419.150	-323.788	719.054	65.206	-157.698	715.791	65.877	-330.040	829.176	846.426	-256.159	840.838	843.466	-145.702	817.514	849.386	-366.615	652.583	868.120	-204.299	646.923	868.147	-257.573	758.801	427.303	-108.410	734.844	419.831	-379.568	740.077	417.297	-218.950	751.294	422.657	-263.839	712.978	66.597	-120.720	703.352	67.328	-364.324	718.801	61.347	-191.241	717.424	65.720	-296.479	670.875	53.170	-149.529	669.932	46.940	-308.528	797.179	1196.194	-260.761	808.413	1094.781	-265.762	689.833	1262.421	-238.581	807.065	1195.972	-204.235	793.556	1197.124	-311.799	806.086	48.128	-144.812	804.204	44.880	-351.005	891.577	555.646	-154.130	859.447	572.931	-395.821	843.028	600.288	-119.099	845.354	614.116	-326.833	827.299	544.012	-116.900	833.352	557.133	-321.557	846.768	181.013	-136.211	694.173	174.019	-449.734	769.462	166.603	-150.299	707.146	162.143	-372.213
	126	1.05000	759.075	762.766	-251.012	766.427	760.898	-181.385	751.723	764.635	-320.639	757.895	424.561	-164.848	739.912	419.184	-323.715	719.238	65.168	-157.749	715.880	65.838	-330.089	829.118	846.400	-256.164	840.779	843.436	-145.726	817.457	849.364	-366.602	652.519	868.077	-204.311	646.905	868.118	-257.526	758.820	427.312	-108.422	734.895	419.852	-379.486	739.923	417.386	-219.477	750.719	422.975	-263.913	713.152	66.553	-120.772	703.380	67.307	-364.350	718.691	61.517	-191.306	717.540	65.689	-296.523	670.862	53.334	-149.626	669.885	46.974	-308.643	797.098	1196.194	-260.676	808.344	1094.750	-265.721	689.750	1262.378	-238.568	806.965	1195.868	-204.009	793.534	1197.149	-311.719	806.069	48.122	-144.817	804.225	44.862	-351.032	891.575	555.639	-154.124	859.436	572.938	-395.831	842.921	600.113	-119.181	845.618	614.169	-326.839	827.020	543.871	-117.043	833.311	557.013	-321.583	846.740	181.018	-136.190	694.210	174.018	-449.734	769.383	166.517	-150.040	707.266	162.108	-372.256
	127	1.05833	759.009	762.749	-251.027	766.363	760.873	-181.401	751.654	764.624	-320.654	757.911	424.565	-164.866	740.031	419.209	-323.650	719.496	65.113	-157.814	715.944	65.813	-330.129	829.060	846.376	-256.174	840.725	843.401	-145.745	817.395	849.350	-366.604	652.475	868.062	-204.329	646.884	868.110	-257.500	758.823	427.316	-108.440	734.927	419.864	-379.413	739.882	417.718	-220.332	750.568	422.872	-264.111	713.402	66.490	-120.838	703.393	67.296	-364.371	718.849	61.487	-191.368	717.529	65.669	-296.540	672.053	52.708	-149.372	669.853	46.958	-308.601	797.019	1196.185	-260.607	808.256	1094.719	-265.710	689.721	1262.396	-238.511	806.941	1195.815	-203.946	793.473	1197.142	-311.679	806.071	48.136	-144.819	804.246	44.840	-351.039	891.573	555.636	-154.118	859.422	572.949	-395.837	842.829	599.985	-119.139	845.512	614.103	-326.843	826.815	543.756	-117.218	833.207	556.951	-321.628	846.716	180.998	-136.178	694.230	174.035	-449.758	769.340	166.501	-150.036	707.267	162.122	-372.245
	128	1.06667	758.936	762.745	-251.032	766.298	760.862	-181.406	751.575	764.627	-320.657	757.900	424.564	-164.882	740.081	419.221	-323.611	719.631	65.084	-157.853	715.972	65.811	-330.158	828.999	846.362	-256.178	840.675	843.376	-145.741	817.323	849.349	-366.615	652.443	868.082	-204.343	646.847	868.103	-257.479	758.803	427.314	-108.456	734.928	419.869	-379.370	740.014	417.760	-220.257	750.880	422.588	-264.141	713.532	66.456	-120.878	703.391	67.304	-364.389	719.126	61.322	-191.397	717.420	65.662	-296.538	674.443	51.376	-148.975	669.817	46.987	-308.521	796.950	1196.177	-260.563	808.121	1094.700	-265.748	689.734	1262.384	-238.424	806.864	1195.790	-203.918	793.367	1197.134	-311.760	806.060	48.149	-144.822	804.264	44.819	-351.029	891.562	555.639	-154.125	859.405	572.965	-395.836	842.819	600.059	-119.009	845.218	614.095	-326.854	826.959	543.816	-117.154	833.126	556.954	-321.623	846.706	180.962	-136.177	694.228	174.058	-449.789	769.361	166.580	-150.264	707.169	162.177	-372.191
	129	1.07500	758.858	762.751	-251.022	766.227	760.864	-181.397	751.488	764.637	-320.646	757.867	424.555	-164.893	740.059	419.202	-323.593	719.588	65.085	-157.852	715.968	65.822	-330.174	828.934	846.356	-256.174	840.626	843.363	-145.717	817.243	849.348	-366.631	652.399	868.138	-204.348	646.788	868.096	-257.455	758.766	427.302	-108.467	734.896	419.848	-379.351	739.804	417.989	-220.151	751.372	422.447	-264.101	713.486	66.459	-120.877	703.381	67.318	-364.402	719.248	61.252	-191.401	717.264	65.692	-296.522	674.480	51.207	-148.879	669.805	46.969	-308.496	796.889	1196.168	-260.549	808.117	1094.747	-265.834	689.714	1262.365	-238.380	806.822	1195.797	-203.933	793.343	1197.206	-311.792	806.051	48.157	-144.819	804.274	44.806	-351.012	891.539	555.640	-154.148	859.378	572.983	-395.820	842.872	600.066	-118.912	845.122	614.197	-326.854	827.066	543.956	-117.107	833.211	557.079	-321.620	846.728	180.917	-136.191	694.214	174.070	-449.805	769.457	166.693	-150.447	707.010	162.223	-372.170
	130	1.08333	758.786	762.761	-251.010	766.161	760.875	-181.386	751.411	764.648	-320.634	757.825	424.537	-164.903	739.974	419.145	-323.605	719.383	65.105	-157.811	715.939	65.829	-330.162	828.880	846.351	-256.170	840.583	843.358	-145.691	817.177	849.345	-366.649	652.322	868.212	-204.333	646.708	868.100	-257.430	758.721	427.280	-108.477	734.841	419.794	-379.365	739.091	418.671	-220.632	751.289	422.671	-264.073	713.278	66.488	-120.837	703.370	67.320	-364.397	719.081	61.356	-191.389	717.278	65.732	-296.520	672.104	52.387	-149.062	669.752	47.024	-308.521	796.835	1196.153	-260.552	808.088	1094.798	-265.943	689.584	1262.387	-238.410	806.714	1195.759	-203.977	793.350	1197.322	-311.682	806.074	48.173	-144.808	804.274	44.794	-350.991	891.504	555.636	-154.182	859.344	573.004	-395.793	842.946	600.039	-118.916	845.260	614.286	-326.850	826.834	544.002	-117.229	833.278	557.217	-321.626	846.767	180.870	-136.214	694.210	174.072	-449.810	769.496	166.835	-150.493	707.015	162.189	-372.241
